<?xml version="1.0" encoding="UTF-8"?>
<svg xmlns="http://www.w3.org/2000/svg" xmlns:xlink="http://www.w3.org/1999/xlink" width="14pt" height="15pt" viewBox="0 0 14 15" version="1.1">
<g id="surface1">
<path style=" stroke:none;fill-rule:nonzero;fill:rgb(0%,0%,0%);fill-opacity:1;" d="M 3.046875 13.125 L 0.222656 13.125 L 0.222656 4.363281 L 3.046875 4.363281 Z M 1.632812 3.167969 C 0.734375 3.167969 0 2.445312 0 1.574219 C 0 0.707031 0.734375 0 1.632812 0 C 2.535156 0 3.269531 0.707031 3.269531 1.574219 C 3.269531 2.445312 2.535156 3.167969 1.632812 3.167969 Z M 13.605469 13.125 L 10.792969 13.125 L 10.792969 8.859375 C 10.792969 7.84375 10.769531 6.539062 9.324219 6.539062 C 7.859375 6.539062 7.632812 7.644531 7.632812 8.785156 L 7.632812 13.125 L 4.816406 13.125 L 4.816406 4.363281 L 7.519531 4.363281 L 7.519531 5.558594 L 7.5625 5.558594 C 7.9375 4.871094 8.855469 4.140625 10.230469 4.140625 C 13.085938 4.140625 13.609375 5.953125 13.609375 8.3125 L 13.609375 13.125 Z M 13.605469 13.125 "/>
</g>
</svg>
